HIERARCHY
ROOT Hips
{
	OFFSET	0.00	0.00	0.00
	CHANNELS 6 Xposition Yposition Zposition Zrotation Xrotation Yrotation
	JOINT LeftUpLeg
	{
		OFFSET	 0.126116	-0.065224	 0.014019
		CHANNELS 3 Zrotation Xrotation Yrotation
		JOINT LeftLeg
		{
			OFFSET	 0.000000	 0.569914	 0.000000
			CHANNELS 3 Zrotation Xrotation Yrotation
			JOINT LeftFoot
			{
				OFFSET	 0.000000	 0.544423	 0.000000
				CHANNELS 3 Zrotation Xrotation Yrotation
				JOINT LeftToeBase
				{
					OFFSET	 0.000000	 0.207117	 0.000000
					CHANNELS 3 Zrotation Xrotation Yrotation
					End Site
					{
						OFFSET	 0.000000	 0.207117	 0.000000
					}
				}
			}
		}
	}
	JOINT RightUpLeg
	{
		OFFSET	-0.124023	-0.065224	 0.008373
		CHANNELS 3 Zrotation Xrotation Yrotation
		JOINT RightLeg
		{
			OFFSET	 0.000000	 0.570047	 0.000000
			CHANNELS 3 Zrotation Xrotation Yrotation
			JOINT RightFoot
			{
				OFFSET	 0.000000	 0.544354	 0.000000
				CHANNELS 3 Zrotation Xrotation Yrotation
				JOINT RightToeBase
				{
					OFFSET	 0.000000	 0.207540	 0.000000
					CHANNELS 3 Zrotation Xrotation Yrotation
					End Site
					{
						OFFSET	 0.000000	 0.207540	 0.000000
					}
				}
			}
		}
	}
	JOINT Spine
	{
		OFFSET	 0.000184	 0.117403	 0.007763
		CHANNELS 3 Zrotation Xrotation Yrotation
		JOINT Spine1
		{
			OFFSET	 0.000000	 0.137269	 0.000000
			CHANNELS 3 Zrotation Xrotation Yrotation
			JOINT Spine2
			{
				OFFSET	 0.000000	 0.156879	 0.000000
				CHANNELS 3 Zrotation Xrotation Yrotation
				JOINT LeftShoulder
				{
					OFFSET	 0.080501	 0.160143	 0.002496
					CHANNELS 3 Zrotation Xrotation Yrotation
					JOINT LeftArm
					{
						OFFSET	 0.000000	 0.164363	 0.000000
						CHANNELS 3 Zrotation Xrotation Yrotation
						JOINT LeftForeArm
						{
							OFFSET	 0.000000	 0.364576	 0.000000
							CHANNELS 3 Zrotation Xrotation Yrotation
							JOINT LeftHand
							{
								OFFSET	 0.000000	 0.360812	 0.000000
								CHANNELS 3 Zrotation Xrotation Yrotation
								JOINT LeftHandIndex1
								{
									OFFSET	 0.000000	 0.086006	 0.000000
									CHANNELS 3 Zrotation Xrotation Yrotation
									JOINT LeftHandIndex2
									{
										OFFSET	 0.000000	 0.047237	 0.000000
										CHANNELS 3 Zrotation Xrotation Yrotation
										JOINT LeftHandIndex3
										{
											OFFSET	-0.004284	 0.038165	 0.000551
											CHANNELS 3 Zrotation Xrotation Yrotation
											End Site
											{
												OFFSET	-0.004284	 0.038165	 0.000551
											}
										}
									}
								}
							}
						}
					}
				}
				JOINT Neck
				{
					OFFSET	 0.000000	 0.176489	 0.000000
					CHANNELS 3 Zrotation Xrotation Yrotation
					JOINT Head
					{
						OFFSET	 0.000000	 0.077941	 0.001747
						CHANNELS 3 Zrotation Xrotation Yrotation
						End Site
						{
							OFFSET	 0.000000	 0.077941	 0.001747
						}
					}
				}
				JOINT RightShoulder
				{
					OFFSET	-0.080363	 0.159706	-0.000306
					CHANNELS 3 Zrotation Xrotation Yrotation
					JOINT RightArm
					{
						OFFSET	 0.000000	 0.164196	 0.000000
						CHANNELS 3 Zrotation Xrotation Yrotation
						JOINT RightForeArm
						{
							OFFSET	 0.000000	 0.365611	 0.000000
							CHANNELS 3 Zrotation Xrotation Yrotation
							JOINT RightHand
							{
								OFFSET	 0.000000	 0.360648	 0.000000
								CHANNELS 3 Zrotation Xrotation Yrotation
								JOINT RightHandIndex1
								{
									OFFSET	 0.000000	 0.069977	 0.000000
									CHANNELS 3 Zrotation Xrotation Yrotation
									JOINT RightHandIndex2
									{
										OFFSET	 0.000000	 0.052305	 0.000000
										CHANNELS 3 Zrotation Xrotation Yrotation
										JOINT RightHandIndex3
										{
											OFFSET	 0.009002	 0.042196	 0.000782
											CHANNELS 3 Zrotation Xrotation Yrotation
											End Site
											{
												OFFSET	 0.009002	 0.042196	 0.000782
											}
										}
									}
								}
							}
						}
					}
				}
			}
		}
	}
}
MOTION
Frames:    7
Frame Time: 0.03333334
-0.007067	 1.268806	-0.019002	 0.480045	 1.936186	 177.089700	-175.599000	 4.208075	-31.141010	 3.452527	-16.963620	 2.803722	-5.846387	 70.379450	 7.340585	 1.331492	 28.938720	-2.729976	 176.122800	 5.333981	 30.613730	-5.177530	-16.579050	-8.563981	-2.893630	 70.256020	 4.293745	-1.318052	 28.747740	 2.166251	 0.870716	 2.349135	-31.544490	-0.730468	 2.723213	 0.586194	-0.916338	-2.159275	-4.251072	-113.447900	 5.527174	 93.163960	 13.903950	 48.256690	 30.903430	 9.647364	-0.251512	-4.449580	 0.651470	-3.879837	-7.550697	-6.580301	 5.266122	 0.000000	 0.000000	 0.000000	 0.000000	 0.000000	 0.000000	 0.000000	 3.387955	-0.958241	 0.650386	-0.499722	 1.795907	 1.776696	 114.160700	-4.130413	-88.716610	-62.370290	-4.569968	 45.704140	-81.035850	-2.038714	 2.561597	-24.130880	-19.688720	-28.245450	-0.359246	 10.567770	 0.744449	 11.977630	 9.302859	-2.092986	-8.358980	 3.142948	 0.104789
-0.008382	 1.268664	-0.019190	 0.696540	 1.826212	 175.269800	-175.268100	 4.173667	-32.842650	 3.523959	-17.293450	 1.689049	-9.100688	 70.498760	 10.814180	 1.331492	 28.938720	-2.729976	 176.384000	 5.679522	 28.816960	-5.139690	-16.464780	-9.784273	-6.396609	 69.952330	 7.906614	-1.320157	 28.777540	 2.114847	 0.742942	 2.679971	-23.581730	-0.803359	 2.055532	 1.642199	-0.755830	-1.170691	-6.493404	-113.449700	 5.705324	 93.252930	 10.425910	 47.973970	 33.318180	 10.161550	-0.250086	-4.944288	 4.039837	-4.096874	-1.117562	-6.580301	 5.266122	 0.000000	 0.000000	 0.000000	 0.000000	 0.000000	 0.000000	 0.000000	 3.813920	-0.716508	 0.356468	 0.620575	 1.863769	 0.743548	 114.147000	-4.027785	-88.783340	-60.772540	-15.467780	 43.353050	-86.304100	-2.040485	 2.854552	-24.947380	 6.050543	-24.966620	-0.359169	 10.565730	 0.744427	 11.977600	 9.300852	-2.092550	-8.358964	 3.141931	 0.104860
-0.007972	 1.268396	-0.020267	 1.000205	 1.598951	 174.730500	-174.832500	 4.438436	-33.081830	 3.624046	-17.753530	 1.430080	-9.877314	 70.505030	 11.692240	 1.331492	 28.938720	-2.729976	 176.616700	 5.615872	 28.503010	-5.047434	-16.185580	-9.525159	-6.005053	 69.948590	 7.322768	-1.322019	 28.804290	 2.071613	 0.381831	 3.123943	-13.363940	-1.057587	 1.060587	 2.682446	-0.684903	 0.321703	-8.809183	-113.450500	 5.660837	 93.246790	 18.126720	 46.647730	 26.973370	 10.715270	-0.250043	-5.449145	 5.136619	 1.246700	 4.281400	-6.580301	 5.266122	 0.000000	 0.000000	 0.000000	 0.000000	 0.000000	 0.000000	 0.000000	 4.327007	-0.481281	-0.118572	 2.713280	 1.959177	-0.789850	 114.132900	-3.913469	-88.847550	-51.182440	-7.202627	 31.206390	-118.497400	-1.750902	 2.143931	-16.291360	 12.382830	-29.651060	-0.359101	 10.563970	 0.744406	 11.977570	 9.299127	-2.092175	-8.358950	 3.141060	 0.104919
-0.008037	 1.268243	-0.021623	 1.264097	 1.426920	 174.851600	-174.581800	 4.632989	-32.786330	 3.700855	-18.105070	 1.764737	-9.003282	 70.642800	 10.783750	 1.331492	 28.938720	-2.729976	 176.797400	 5.404426	 28.795120	-4.972938	-15.959520	-8.935946	-4.596264	 70.043880	 5.720058	-1.323589	 28.827090	 2.036052	-0.195002	 3.457345	-1.416925	-1.295161	-0.008410	 3.585623	-0.590517	 1.757280	-10.751550	-113.450300	 5.583769	 93.216420	 23.621190	 47.031930	 22.474520	 11.271700	-0.249546	-5.963296	 6.330138	 4.480658	 8.748380	-6.580301	 5.266122	 0.000000	 0.000000	 0.000000	 0.000000	 0.000000	 0.000000	 0.000000	 4.714384	-0.325757	-0.498107	 4.324020	 1.988366	-1.961042	 114.126100	-3.849490	-88.874730	-46.897430	-6.182714	 27.256840	-127.891900	-1.527122	 2.354015	-12.049060	 16.171520	-33.869950	-0.359044	 10.562520	 0.744388	 11.977550	 9.297704	-2.091863	-8.358938	 3.140344	 0.104967
-0.009366	 1.267983	-0.023657	 1.260848	 1.479350	 176.952500	-174.964500	 4.719587	-30.939070	 3.735962	-18.265190	 3.790365	-3.411380	 71.026180	 4.772132	 1.331492	 28.938720	-2.729976	 176.580000	 4.922712	 30.841800	-5.068600	-16.249700	-7.491432	-0.298587	 70.486170	 1.361895	-1.324214	 28.836220	 2.026292	-1.034762	 3.344805	 11.238680	-1.517856	-0.241118	 3.743253	-0.502318	 2.020420	-12.224050	-113.447400	 5.416924	 93.117070	 22.098200	 52.348280	 23.628450	 11.836200	-0.248866	-6.489608	 10.616050	 0.533212	 12.358330	-6.580301	 5.266122	 0.000000	 0.000000	 0.000000	 0.000000	 0.000000	 0.000000	 0.000000	 4.691338	-0.408308	-0.556928	 4.385011	 1.905241	-2.139444	 114.141200	-3.939970	-88.790020	-54.921960	-15.781460	 53.086690	-93.956670	-1.974163	 4.113422	-13.696640	 12.921990	-42.814760	-0.359026	 10.562100	 0.744378	 11.977540	 9.297298	-2.091770	-8.358936	 3.140143	 0.104976
-0.009119	 1.267964	-0.024062	 1.174034	 1.502400	 178.830800	-175.242200	 4.955345	-29.288120	 3.748404	-18.321890	 5.403998	 1.186688	 71.051460	-0.148851	 1.331492	 28.938720	-2.729976	 176.364700	 4.654918	 32.669300	-5.118989	-16.402230	-6.121851	 3.628849	 70.644060	-2.796578	-1.324023	 28.833420	 2.036967	-1.791474	 2.989456	 23.667110	-1.522838	-0.333906	 3.783113	-0.447474	 2.017086	-13.252820	-113.443600	 5.287913	 93.016400	 25.290010	 53.724410	 21.569670	 12.481160	-0.252731	-7.005133	 11.462220	-0.051104	 13.731970	-6.580301	 5.266122	 0.000000	 0.000000	 0.000000	 0.000000	 0.000000	 0.000000	 0.000000	 4.612671	-0.471503	-0.481738	 3.992074	 1.832916	-2.046566	 114.164500	-4.088323	-88.666690	-59.497030	-13.980260	 61.389760	-74.790480	-1.878760	 5.381435	-26.446400	-13.995920	-55.329640	-0.359039	 10.562530	 0.744377	 11.977540	 9.297731	-2.091857	-8.358943	 3.140368	 0.104955
-0.006494	 1.268302	-0.022128	 0.911802	 1.466605	-179.741900	-175.424400	 5.423308	-28.038900	 3.712902	-18.160040	 6.263866	 3.716185	 70.763360	-2.778897	 1.331492	 28.938720	-2.729976	 176.021700	 4.775535	 34.054930	-5.128827	-16.431920	-4.888875	 6.768270	 70.562880	-6.391207	-1.322238	 28.807510	 2.087142	-2.328689	 2.450561	 34.704750	-1.402515	-0.127661	 3.674593	-0.313298	 1.515311	-13.728140	-113.437800	 5.233536	 92.914210	 37.541810	 47.366060	 13.809600	 13.251340	-0.263208	-7.513712	 4.897947	 4.866161	 11.080870	-6.580301	 5.266122	 0.000000	 0.000000	 0.000000	 0.000000	 0.000000	 0.000000	 0.000000	 4.427207	-0.497291	-0.147503	 2.722847	 1.761384	-1.510263	 114.203600	-4.347287	-88.469680	-50.549840	 21.369830	 47.305820	-83.538960	-1.921671	 5.560574	-89.781330	-54.740250	-90.752890	-0.359113	 10.564610	 0.744392	 11.977560	 9.299785	-2.092293	-8.358966	 3.141414	 0.104874
